<svg width="445" height="89" viewBox="0 0 445 89" fill="none" xmlns="http://www.w3.org/2000/svg">
<path d="M17.427 10.1042C26.5521 8.84782 36.3761 6.92251 44.7573 11.5682C55.944 17.769 59.3337 33.6454 50.751 43.3987C67.171 52.2955 63.4717 77.1487 46.6373 83.1538C42.4646 84.6422 18.25 87.7939 13.8114 87.4803C11.9301 87.3474 8.58452 85.0372 7.98642 83.1205L0.575052 17.0061C1.07311 10.7516 12.478 10.7858 17.427 10.1042ZM24.7213 29.0143C20.8652 30.2192 19.942 36.0826 23.4881 38.208C25.8446 39.6204 35.6292 38.7108 36.5818 35.2849C38.709 27.6355 29.6814 27.4645 24.7213 29.0143ZM27.8005 56.4822C23.6738 57.8875 23.8362 65.1058 27.9164 66.1714C30.6656 66.8893 40.0129 65.7742 41.2579 62.5736C44.4397 54.3931 32.3124 54.9457 27.8005 56.4822Z" fill="#495085"/>
<path d="M123.626 0.913841C126.954 0.574759 159.761 3.67473 163.022 4.62586C167.432 5.91201 168.716 12.0556 167.302 15.8394C164.848 22.4044 147.63 38.9517 146.222 44.2686C144.063 52.4274 159.917 46.6029 163.515 52.1276C165.222 54.7491 164.245 65.6887 160.784 67.4443C155.318 70.2168 127.302 64.076 119.461 64.6501C103.478 55.37 131.472 35.0118 135.93 24.6098C138.301 15.9142 121.647 22.5338 118.672 16.3876C117.142 13.2284 118.143 1.47237 123.626 0.913841Z" fill="#495085"/>
<path d="M169.24 24.372C171.57 23.8725 201.656 23.8795 204.069 24.372C208.137 25.2027 209.417 30.594 208.382 34.0572C206.515 40.3068 195.077 52.3973 193.045 58.8257C190.076 68.2165 207.748 58.7124 209.341 67.717C209.873 70.7286 209.839 78.7539 205.986 79.625C203.721 80.1368 173.381 80.113 170.838 79.625C166.68 78.827 165.216 73.4919 166.205 69.9398C167.771 64.3129 181.489 48.6081 182.181 43.9011C183.239 36.7017 169.313 43.2009 166.524 38.1852C165.1 35.6242 164.795 25.3246 169.24 24.372Z" fill="#495085"/>
<path d="M97.5688 11.3326C101.5 10.6267 110.165 10.6241 111.157 15.6643C111.984 19.8612 111.525 46.137 110.503 50.3179C105.106 72.3849 70.1538 72.6278 64.6614 50.6388C63.6398 46.548 63.1889 19.8019 64.0065 15.6643C65.1575 9.83895 79.4759 10.491 81.3607 14.06C83.7081 18.5049 80.8168 37.8086 82.0155 44.2214C83.119 50.1251 91.7398 49.6733 92.8209 44.8632C94.261 38.4574 90.9018 18.2158 93.8033 13.7391C94.3845 12.8426 96.5488 11.5158 97.5688 11.3326Z" fill="#495085"/>
<path d="M378.702 6.17222C395.136 3.78665 394.921 27.0094 379.128 24.8592C368.208 23.3726 368.516 7.65048 378.702 6.17222Z" fill="#D69645"/>
<path d="M282.774 25.0474C305.119 26.1057 304.862 54.9378 300.338 70.5569C298.75 76.0409 286.207 73.8772 284.823 71.1492C282.744 67.0532 287.058 51.7099 286.225 46.4417C285.701 43.1239 280.367 41.9858 278.104 44.1434C274.603 47.4803 276.781 65.7725 274.202 70.2055C272.804 72.6074 260.004 72.2833 259.358 67.7041C258.637 62.592 264.303 43.011 258.36 41.0095C246.136 36.8932 254.804 68.1004 246.706 69.5361C243.262 70.1466 234.357 69.3415 233.858 64.65C231.95 46.6971 238.115 16.5083 263.036 24.0819C265.156 24.7264 269.741 28.6106 270.162 28.6567C270.822 28.7287 278.583 24.8488 282.774 25.0474Z" fill="#495085"/>
<path d="M326.508 18.8451C349.665 13.0692 358.245 40.0455 340.71 46.1588C338.063 47.0818 327.711 47.345 327.367 49.585C326.598 54.5821 337.51 52.6046 339.855 51.8356C343.299 50.7067 347.433 45.3823 350.717 50.3055C359.779 63.8897 334.413 67.9688 325.588 65.126C304.559 58.3516 304.878 24.24 326.508 18.8451ZM330.003 31.5508C326.998 32.2877 322.413 37.9916 325.806 38.4331C326.305 38.4978 335.185 36.6442 335.641 36.4319C339.264 34.7462 335.747 30.1428 330.003 31.5508Z" fill="#495085"/>
<path d="M417.737 26.8759C429.736 26.5103 441.426 35.5819 441.684 47.8166C441.752 51.0541 439.576 73.2798 438.721 75.5971C437.153 79.8488 423.491 78.869 422.111 74.2387C420.551 69.0097 425.176 55.0663 424.354 49.2738C424.242 48.483 422.335 46.1512 421.575 45.8785C407.967 40.9953 417.156 74.2338 408.367 75.4586C405.512 75.8566 396.228 74.8524 395.189 71.3675C394.627 69.4825 397.009 46.9354 397.694 43.9513C399.686 35.2869 408.583 27.1549 417.737 26.8759Z" fill="#495085"/>
<path d="M374.776 33.3024C377.435 32.6651 387.582 32.8092 388.562 35.9868L389 78.5257C387.836 84.173 372.792 84.8016 371.494 78.5257C370.848 75.403 370.823 39.696 371.494 36.8128C371.715 35.8634 373.694 33.5621 374.776 33.3024Z" fill="#495085"/>
</svg>
