<svg width="393" height="387" viewBox="0 0 393 387" fill="none" xmlns="http://www.w3.org/2000/svg">
<g clip-path="url(#clip0_1_1560)">
<path d="M76.517 73.2151C89.3545 71.4475 103.175 68.7389 114.966 75.2746C130.704 83.9982 135.473 106.334 123.398 120.055C146.499 132.571 141.294 167.536 117.611 175.984C111.741 178.078 77.6748 182.512 71.4303 182.071C68.7837 181.884 64.077 178.634 63.2356 175.937L52.809 82.9249C53.5097 74.1257 69.5545 74.1739 76.517 73.2151ZM86.7789 99.8185C81.354 101.514 80.0552 109.762 85.0439 112.752C88.3592 114.739 102.124 113.46 103.465 108.64C106.457 97.8787 93.7568 97.6381 86.7789 99.8185ZM91.1107 138.461C85.3052 140.438 85.5336 150.593 91.2738 152.092C95.1415 153.102 108.292 151.534 110.043 147.031C114.519 135.522 97.4583 136.3 91.1107 138.461Z" fill="white"/>
<path d="M225.922 60.2856C230.603 59.8086 276.758 64.1697 281.346 65.5078C287.549 67.3172 289.356 75.9603 287.367 81.2834C283.914 90.5193 259.691 113.799 257.711 121.279C254.672 132.757 276.977 124.563 282.039 132.335C284.44 136.023 283.066 151.413 278.196 153.883C270.507 157.784 231.093 149.144 220.062 149.952C197.577 136.897 236.96 108.256 243.231 93.622C246.567 81.3887 223.138 90.7013 218.952 82.0547C216.8 77.6101 218.208 61.0714 225.922 60.2856Z" fill="white"/>
<path d="M290.278 92.6514C293.575 91.9402 336.149 91.9501 339.562 92.6514C345.319 93.8342 347.13 101.511 345.666 106.442C343.024 115.341 326.839 132.556 323.963 141.709C319.762 155.081 344.769 141.548 347.022 154.37C347.776 158.658 347.727 170.085 342.275 171.325C339.071 172.054 296.137 172.02 292.539 171.325C286.656 170.189 284.583 162.592 285.982 157.535C288.199 149.523 307.611 127.161 308.59 120.459C310.087 110.207 290.38 119.462 286.435 112.32C284.42 108.673 283.988 94.0078 290.278 92.6514Z" fill="white"/>
<path d="M188.929 74.4687C194.357 73.4739 206.322 73.4703 207.693 80.5727C208.834 86.4868 208.2 123.513 206.788 129.405C199.336 160.5 151.072 160.843 143.488 129.857C142.077 124.092 141.454 86.4031 142.583 80.5727C144.173 72.3639 163.945 73.2827 166.547 78.3119C169.789 84.5755 165.796 111.777 167.451 120.814C168.975 129.133 180.879 128.496 182.372 121.718C184.361 112.691 179.722 84.1682 183.729 77.8598C184.531 76.5965 187.52 74.7268 188.929 74.4687Z" fill="white"/>
<path d="M242.931 166.172C257.722 163.787 257.529 187.009 243.315 184.859C233.487 183.373 233.764 167.65 242.931 166.172Z" fill="#D69645"/>
<path opacity="0.8" d="M148.358 190.022C170.709 189.098 173.004 217.84 169.881 233.798C168.785 239.401 156.1 238.356 154.479 235.761C152.046 231.865 154.985 216.2 153.689 211.027C152.874 207.768 147.46 207.107 145.396 209.456C142.204 213.09 145.993 231.117 143.816 235.761C142.637 238.277 129.858 239.087 128.809 234.583C127.638 229.555 131.55 209.55 125.452 208.082C112.913 205.064 124.308 235.381 116.369 237.528C112.993 238.441 104.051 238.427 103.139 233.798C99.6492 216.085 103.119 185.469 128.612 190.807C130.781 191.261 135.692 194.724 136.115 194.733C136.778 194.746 144.166 190.195 148.358 190.022Z" fill="white"/>
<path opacity="0.8" d="M194.826 190.214C219.092 187.298 224.454 215.117 205.864 219.052C203.057 219.646 192.499 218.648 191.869 220.83C190.465 225.696 201.806 225.061 204.287 224.583C207.929 223.881 212.796 219.099 215.522 224.385C223.043 238.971 196.743 239.934 188.124 236.039C167.586 226.757 172.161 192.938 194.826 190.214ZM196.797 203.25C193.649 203.616 188.277 208.72 191.672 209.571C192.171 209.696 201.432 208.936 201.922 208.781C205.815 207.548 202.813 202.551 196.797 203.25Z" fill="white"/>
<path opacity="0.8" d="M275.625 190.208C287.049 188.637 299.138 196.11 300.631 207.77C301.026 210.855 301.211 232.306 300.631 234.606C299.566 238.827 286.418 239.283 284.627 235.001C282.605 230.165 285.602 216.376 284.227 210.927C284.039 210.183 281.98 208.15 281.226 207.967C267.732 204.689 279.894 235.501 271.624 237.566C268.938 238.237 259.968 238.224 258.621 235.001C257.892 233.258 257.87 211.479 258.221 208.559C259.24 200.081 266.91 191.407 275.625 190.208Z" fill="white"/>
<path opacity="0.8" d="M240.357 190.29C242.72 189.678 251.74 189.817 252.611 192.867L253 233.705C251.965 239.126 238.592 239.73 237.439 233.705C236.865 230.707 236.842 196.428 237.439 193.66C237.635 192.749 239.394 190.54 240.357 190.29Z" fill="white"/>
</g>
<defs>
<clipPath id="clip0_1_1560">
<rect width="463" height="463" fill="white" transform="translate(-26 -76)"/>
</clipPath>
</defs>
</svg>
