<svg width="442" height="93" viewBox="0 0 442 93" fill="none" xmlns="http://www.w3.org/2000/svg">
<path d="M17.427 14.1042C26.5521 12.8478 36.3761 10.9225 44.7573 15.5682C55.944 21.769 59.3337 37.6454 50.751 47.3987C67.171 56.2955 63.4717 81.1487 46.6373 87.1538C42.4646 88.6422 18.25 91.7939 13.8114 91.4803C11.9301 91.3474 8.58452 89.0372 7.98642 87.1205L0.575052 21.0061C1.07311 14.7516 12.478 14.7858 17.427 14.1042ZM24.7213 33.0143C20.8652 34.2192 19.942 40.0826 23.4881 42.208C25.8446 43.6204 35.6292 42.7108 36.5818 39.2849C38.709 31.6355 29.6814 31.4645 24.7213 33.0143ZM27.8005 60.4822C23.6738 61.8875 23.8362 69.1058 27.9164 70.1714C30.6656 70.8893 40.0129 69.7742 41.2579 66.5736C44.4397 58.3931 32.3124 58.9457 27.8005 60.4822Z" fill="#495085"/>
<path d="M123.626 4.91384C126.954 4.57476 159.761 7.67473 163.022 8.62586C167.432 9.91201 168.716 16.0556 167.302 19.8394C164.848 26.4044 147.63 42.9517 146.222 48.2686C144.063 56.4274 159.917 50.6029 163.515 56.1276C165.222 58.7491 164.245 69.6887 160.784 71.4443C155.318 74.2168 127.302 68.076 119.461 68.6501C103.478 59.37 131.472 39.0118 135.93 28.6098C138.301 19.9142 121.647 26.5338 118.672 20.3876C117.142 17.2284 118.143 5.47237 123.626 4.91384Z" fill="#495085"/>
<path d="M169.24 28.372C171.57 27.8725 201.656 27.8795 204.069 28.372C208.137 29.2027 209.417 34.594 208.382 38.0572C206.515 44.3068 195.077 56.3973 193.045 62.8257C190.076 72.2165 207.748 62.7124 209.341 71.717C209.873 74.7286 209.839 82.7539 205.986 83.625C203.721 84.1368 173.381 84.113 170.838 83.625C166.68 82.827 165.216 77.4919 166.205 73.9398C167.771 68.3129 181.489 52.6081 182.181 47.9011C183.239 40.7017 169.313 47.2009 166.524 42.1852C165.1 39.6242 164.795 29.3246 169.24 28.372Z" fill="#495085"/>
<path d="M97.5688 15.3326C101.5 14.6267 110.165 14.6241 111.157 19.6643C111.984 23.8612 111.525 50.137 110.503 54.3179C105.106 76.3849 70.1538 76.6278 64.6614 54.6388C63.6398 50.548 63.1889 23.8019 64.0065 19.6643C65.1575 13.839 79.4759 14.491 81.3607 18.06C83.7081 22.5049 80.8168 41.8086 82.0155 48.2214C83.119 54.1251 91.7398 53.6733 92.8209 48.8632C94.261 42.4574 90.9018 22.2158 93.8033 17.7391C94.3845 16.8426 96.5488 15.5158 97.5688 15.3326Z" fill="#495085"/>
<path d="M378.657 0.163156C394.27 -2.09686 394.065 19.9036 379.061 17.8666C368.688 16.4582 368.981 1.56361 378.657 0.163156Z" fill="#D69645"/>
<path d="M278.101 24.9041C300.23 21.6269 305.546 49.9658 304.125 66.1645C303.626 71.8519 290.901 72.1514 289.016 69.7421C286.185 66.1248 287.454 50.2372 285.62 45.229C284.465 42.075 279.011 41.9885 277.207 44.5426C274.417 48.4928 280.087 66.0199 278.412 70.8675C277.505 73.4942 264.883 75.6483 263.365 71.2801C261.67 66.4036 263.448 46.0968 257.23 45.281C244.442 43.6028 258.973 72.5485 251.305 75.5212C248.044 76.7852 239.151 77.7153 237.755 73.2085C232.415 55.9622 232.634 25.151 258.548 27.769C260.753 27.9918 266.002 30.9174 266.424 30.8813C267.085 30.8246 273.951 25.5187 278.101 24.9041Z" fill="#495085"/>
<path d="M331.133 20.6268C354.971 19.4486 358.16 47.5762 339.773 50.1752C336.997 50.5676 326.79 48.8196 326.018 50.9503C324.295 55.7038 335.383 55.8785 337.833 55.5786C341.431 55.1386 346.518 50.7164 348.786 56.1827C355.043 71.2656 329.368 70.3513 321.261 65.852C301.944 55.1304 308.868 21.7273 331.133 20.6268ZM332.099 33.7691C329.008 33.9095 323.405 38.6168 326.648 39.7075C327.125 39.8676 336.196 39.7702 336.685 39.6503C340.565 38.6987 338.008 33.501 332.099 33.7691Z" fill="#495085"/>
<path d="M410.89 20.8665C422.086 18.1063 434.892 24.2719 437.599 35.7108C438.315 38.7378 440.748 60.0506 440.412 62.3992C439.795 66.7084 426.767 68.5397 424.537 64.469C422.019 59.872 423.555 45.8447 421.616 40.5699C421.352 39.8498 419.091 38.044 418.322 37.9408C404.558 36.0953 419.883 65.4624 411.875 68.383C409.274 69.3317 400.352 70.2585 398.674 67.1948C397.767 65.5376 395.462 43.8815 395.505 40.9408C395.63 32.402 402.349 22.9722 410.89 20.8665Z" fill="#495085"/>
<path d="M374.907 26.2903C377.418 25.6785 387.001 25.8169 387.927 28.8674L388.34 69.7046C387.241 75.1261 373.032 75.7295 371.807 69.7046C371.197 66.7069 371.173 32.4281 371.807 29.6603C372.015 28.7488 373.884 26.5396 374.907 26.2903Z" fill="#495085"/>
</svg>
