<svg width="296" height="179" viewBox="0 0 296 179" fill="none" xmlns="http://www.w3.org/2000/svg">
<path d="M24.517 14.2151C37.3545 12.4475 51.1753 9.73889 62.9662 16.2746C78.7041 24.9982 83.4728 47.3337 71.3984 61.0549C94.4986 73.5712 89.2943 108.536 65.611 116.984C59.7408 119.078 25.6748 123.512 19.4303 123.071C16.7837 122.884 12.077 119.634 11.2356 116.937L0.809004 23.9249C1.50969 15.1257 17.5545 15.1739 24.517 14.2151ZM34.7789 40.8185C29.354 42.5136 28.0552 50.7624 33.0439 53.7524C36.3592 55.7394 50.1245 54.4598 51.4646 49.6401C54.4573 38.8787 41.7568 38.6381 34.7789 40.8185ZM39.1107 79.4612C33.3052 81.4383 33.5336 91.5933 39.2738 93.0924C43.1415 94.1024 56.2916 92.5337 58.0431 88.031C62.5194 76.5223 45.4583 77.2996 39.1107 79.4612Z" fill="white"/>
<path d="M173.922 1.28563C178.603 0.808592 224.758 5.16974 229.346 6.50783C235.549 8.31724 237.356 16.9603 235.367 22.2834C231.914 31.5193 207.691 54.7987 205.711 62.2787C202.672 73.7569 224.977 65.5627 230.039 73.335C232.44 77.0231 231.066 92.4133 226.196 94.8832C218.507 98.7835 179.093 90.1444 168.062 90.9522C145.577 77.8966 184.96 49.2559 191.231 34.622C194.567 22.3887 171.138 31.7013 166.952 23.0547C164.8 18.6101 166.208 2.07139 173.922 1.28563Z" fill="white"/>
<path d="M238.278 33.6514C241.575 32.9402 284.149 32.9501 287.562 33.6514C293.319 34.8342 295.13 42.5108 293.666 47.4419C291.024 56.3406 274.839 73.5562 271.963 82.7095C267.762 96.0809 292.769 82.5481 295.022 95.3696C295.776 99.6578 295.727 111.085 290.275 112.325C287.071 113.054 244.137 113.02 240.539 112.325C234.656 111.189 232.583 103.592 233.982 98.5347C236.199 90.5226 255.611 68.1607 256.59 61.4585C258.087 51.2074 238.38 60.4615 234.435 53.3198C232.42 49.6733 231.988 35.0078 238.278 33.6514Z" fill="white"/>
<path d="M136.929 15.4687C142.357 14.4739 154.322 14.4703 155.693 21.5727C156.834 27.4868 156.2 64.5132 154.788 70.4047C147.336 101.5 99.0719 101.843 91.4876 70.8569C90.0769 65.0924 89.4543 27.4031 90.5833 21.5727C92.1726 13.3639 111.945 14.2827 114.547 19.3119C117.789 25.5755 113.796 52.7772 115.451 61.8139C116.975 70.133 128.879 69.4963 130.372 62.7182C132.361 53.6915 127.722 25.1682 131.729 18.8598C132.531 17.5965 135.52 15.7268 136.929 15.4687Z" fill="white"/>
<path d="M190.931 107.172C205.722 104.787 205.529 128.009 191.315 125.859C181.487 124.373 181.764 108.65 190.931 107.172Z" fill="#D69645"/>
<path opacity="0.8" d="M96.3579 131.022C118.709 130.098 121.004 158.84 117.881 174.798C116.785 180.401 104.1 179.356 102.479 176.761C100.046 172.865 102.985 157.2 101.689 152.027C100.874 148.768 95.4599 148.107 93.396 150.456C90.2042 154.09 93.9931 172.117 91.8163 176.761C90.6367 179.277 77.8581 180.087 76.8092 175.583C75.6383 170.555 79.5496 150.55 73.4523 149.082C60.9127 146.064 72.3083 176.381 64.3691 178.528C60.9929 179.441 52.051 179.427 51.1391 174.798C47.6492 157.085 51.1186 126.469 76.6117 131.807C78.7807 132.261 83.6915 135.724 84.1153 135.733C84.7784 135.746 92.1658 131.195 96.3579 131.022Z" fill="white"/>
<path opacity="0.8" d="M142.826 131.214C167.092 128.298 172.454 156.117 153.864 160.052C151.057 160.646 140.499 159.648 139.869 161.83C138.465 166.696 149.806 166.061 152.287 165.583C155.929 164.881 160.796 160.099 163.522 165.385C171.043 179.971 144.743 180.934 136.124 177.039C115.586 167.757 120.161 133.938 142.826 131.214ZM144.797 144.25C141.649 144.616 136.277 149.72 139.672 150.571C140.171 150.696 149.432 149.936 149.922 149.781C153.815 148.548 150.813 143.551 144.797 144.25Z" fill="white"/>
<path opacity="0.8" d="M223.625 131.208C235.049 129.637 247.138 137.11 248.631 148.77C249.026 151.855 249.211 173.306 248.631 175.606C247.566 179.827 234.418 180.283 232.627 176.001C230.605 171.165 233.602 157.376 232.227 151.927C232.039 151.183 229.98 149.15 229.226 148.967C215.732 145.689 227.894 176.501 219.624 178.566C216.938 179.237 207.968 179.224 206.621 176.001C205.892 174.258 205.87 152.479 206.221 149.559C207.24 141.081 214.91 132.407 223.625 131.208Z" fill="white"/>
<path opacity="0.8" d="M188.357 131.29C190.72 130.678 199.74 130.817 200.611 133.867L201 174.705C199.965 180.126 186.592 180.73 185.439 174.705C184.865 171.707 184.842 137.428 185.439 134.66C185.635 133.749 187.394 131.54 188.357 131.29Z" fill="white"/>
</svg>
